<svg width="25" height="25" viewBox="0 0 25 25" fill="none" xmlns="http://www.w3.org/2000/svg">
<g clip-path="url(#clip0)">
<path d="M9.76786 8.87298C9.76786 8.65516 9.55786 8.48407 9.39459 8.48407C9.35568 8.48407 9.30895 8.49189 9.27786 8.51516L7.23261 9.85278C7.11588 9.9306 7.06152 10.0706 7.06152 10.1717C7.06152 10.2728 7.11588 10.405 7.23261 10.4828L9.27786 11.8204C9.30895 11.8437 9.35568 11.8515 9.39459 11.8515C9.55786 11.8515 9.76786 11.6882 9.76786 11.4704C9.76786 11.3693 9.72113 11.2839 9.65113 11.245L8.01806 10.1717L9.65113 9.09843C9.72113 9.05189 9.76786 8.96625 9.76786 8.87298Z" fill="#547489"/>
<path d="M13.532 6.47777L10.67 12.1937C10.6545 12.2326 10.6467 12.2715 10.6467 12.3104C10.6467 12.4504 10.7711 12.5981 10.95 12.5981C11.0589 12.5981 11.16 12.5437 11.2067 12.4504L14.0609 6.75777C14.0842 6.71886 14.092 6.67995 14.092 6.63322C14.092 6.45431 13.9209 6.33777 13.7652 6.33777C13.6642 6.33777 13.5787 6.37668 13.532 6.47777Z" fill="#547489"/>
<path d="M14.9707 11.4704C14.9707 11.6882 15.1729 11.8515 15.344 11.8515C15.3827 11.8515 15.4218 11.8437 15.4527 11.8204L17.4981 10.4828C17.6225 10.405 17.6692 10.2728 17.6692 10.1717C17.6692 10.0706 17.6149 9.9306 17.4981 9.85278L15.4529 8.51516C15.4218 8.49189 15.3829 8.48407 15.344 8.48407C15.1729 8.48407 14.9707 8.65516 14.9707 8.87298C14.9707 8.96625 15.0174 9.05189 15.0796 9.09862L16.7205 10.1717L15.0796 11.245C15.0172 11.2839 14.9707 11.3693 14.9707 11.4704Z" fill="#547489"/>
<path d="M23.6906 0.390625H1.30939C0.587273 0.390625 0 0.978088 0 1.70002V18.2808C0 19.0027 0.587273 19.59 1.30939 19.59H10.0183C9.75437 20.4477 9.38511 21.2563 8.91685 22.0013H8.16879C7.14722 22.0013 6.31599 22.8323 6.31599 23.8539C6.31599 24.3132 6.68964 24.6866 7.14874 24.6866H17.8513C18.3104 24.6866 18.684 24.3132 18.684 23.8539C18.684 22.8323 17.8528 22.0013 16.8312 22.0013H16.0831C15.6149 21.2563 15.2456 20.4477 14.9817 19.59H23.6906C24.4127 19.59 25 19.0027 25 18.2808V1.70002C25 0.978088 24.4127 0.390625 23.6906 0.390625ZM1.30939 1.12305H23.6906C24.0088 1.12305 24.2676 1.38187 24.2676 1.70002V16.1371H0.732422V1.70002C0.732422 1.38187 0.991249 1.12305 1.30939 1.12305ZM17.9516 23.8541C17.9516 23.9092 17.9066 23.9544 17.8513 23.9544H7.14874C7.09343 23.9544 7.04842 23.9094 7.04842 23.8541C7.04842 23.2363 7.551 22.7337 8.16879 22.7337H16.8312C17.449 22.7337 17.9516 23.2363 17.9516 23.8541ZM15.2294 22.0013H9.77058C10.1999 21.2484 10.5391 20.4407 10.7822 19.59H14.2178C14.4609 20.4407 14.8001 21.2484 15.2294 22.0013ZM23.6906 18.8576H1.30939C0.991249 18.8576 0.732422 18.5989 0.732422 18.2808V16.8695H24.2676V18.2808C24.2676 18.5987 24.0088 18.8576 23.6906 18.8576Z" fill="#547489"/>
<path d="M1.7334 15.4047H23.2666C23.469 15.4047 23.6328 15.2407 23.6328 15.0385V9.33801C23.6328 9.13583 23.469 8.9718 23.2666 8.9718C23.0644 8.9718 22.9004 9.13583 22.9004 9.33801V14.6723H2.09961V9.33801C2.09961 9.13583 1.93558 8.9718 1.7334 8.9718C1.53103 8.9718 1.36719 9.13583 1.36719 9.33801V15.0385C1.36719 15.2407 1.53103 15.4047 1.7334 15.4047Z" fill="#547489"/>
<path d="M1.7334 8.23956C1.93558 8.23956 2.09961 8.07552 2.09961 7.87334V4.93565H22.9004V7.87334C22.9004 8.07552 23.0644 8.23956 23.2666 8.23956C23.469 8.23956 23.6328 8.07552 23.6328 7.87334V2.17285C23.6328 1.97067 23.469 1.80664 23.2666 1.80664H1.7334C1.53103 1.80664 1.36719 1.97067 1.36719 2.17285V7.87334C1.36719 8.07552 1.53103 8.23956 1.7334 8.23956ZM22.9004 2.53906V4.20322H2.09961V2.53906H22.9004Z" fill="#547489"/>
<path d="M17.2633 3.71243C17.075 3.71243 16.9219 3.55927 16.9219 3.37101C16.9219 3.18295 17.075 3.02979 17.2633 3.02979C17.4515 3.02979 17.6047 3.18295 17.6047 3.37101C17.6045 3.55927 17.4514 3.71243 17.2633 3.71243Z" fill="#547489"/>
<path d="M19.1337 3.71243C18.9456 3.71243 18.7925 3.55927 18.7925 3.37101C18.7925 3.18295 18.9456 3.02979 19.1337 3.02979C19.322 3.02979 19.4751 3.18295 19.4751 3.37101C19.4751 3.55927 19.322 3.71243 19.1337 3.71243Z" fill="#547489"/>
<path d="M21.0043 3.71243C20.816 3.71243 20.6628 3.55927 20.6628 3.37101C20.6628 3.18295 20.816 3.02979 21.0043 3.02979C21.1925 3.02979 21.3455 3.18295 21.3455 3.37101C21.3457 3.55927 21.1925 3.71243 21.0043 3.71243Z" fill="#547489"/>
</g>
<defs>
<clipPath id="clip0">
<rect width="25" height="25" fill="white"/>
</clipPath>
</defs>
</svg>
