<svg width="45" height="29" viewBox="0 0 45 29" fill="none" xmlns="http://www.w3.org/2000/svg">
<circle cx="42.5" cy="2.5" r="2.5" transform="rotate(90 42.5 2.5)" fill="#D2DDE4"/>
<circle cx="34.5" cy="2.5" r="2.5" transform="rotate(90 34.5 2.5)" fill="#D2DDE4"/>
<circle cx="26.5" cy="2.5" r="2.5" transform="rotate(90 26.5 2.5)" fill="#D2DDE4"/>
<circle cx="18.5" cy="2.5" r="2.5" transform="rotate(90 18.5 2.5)" fill="#D2DDE4"/>
<circle cx="10.5" cy="2.5" r="2.5" transform="rotate(90 10.5 2.5)" fill="#D2DDE4"/>
<circle cx="2.5" cy="2.5" r="2.5" transform="rotate(90 2.5 2.5)" fill="#D2DDE4"/>
<circle cx="42.5" cy="10.5" r="2.5" transform="rotate(90 42.5 10.5)" fill="#D2DDE4"/>
<circle cx="34.5" cy="10.5" r="2.5" transform="rotate(90 34.5 10.5)" fill="#D2DDE4"/>
<circle cx="26.5" cy="10.5" r="2.5" transform="rotate(90 26.5 10.5)" fill="#D2DDE4"/>
<circle cx="18.5" cy="10.5" r="2.5" transform="rotate(90 18.5 10.5)" fill="#D2DDE4"/>
<circle cx="10.5" cy="10.5" r="2.5" transform="rotate(90 10.5 10.5)" fill="#D2DDE4"/>
<circle cx="2.5" cy="10.5" r="2.5" transform="rotate(90 2.5 10.5)" fill="#D2DDE4"/>
<circle cx="42.5" cy="18.5" r="2.5" transform="rotate(90 42.5 18.5)" fill="#D2DDE4"/>
<circle cx="34.5" cy="18.5" r="2.5" transform="rotate(90 34.5 18.5)" fill="#D2DDE4"/>
<circle cx="26.5" cy="18.5" r="2.5" transform="rotate(90 26.5 18.5)" fill="#D2DDE4"/>
<circle cx="18.5" cy="18.5" r="2.5" transform="rotate(90 18.5 18.5)" fill="#D2DDE4"/>
<circle cx="10.5" cy="18.5" r="2.5" transform="rotate(90 10.5 18.5)" fill="#D2DDE4"/>
<circle cx="2.5" cy="18.5" r="2.5" transform="rotate(90 2.5 18.5)" fill="#D2DDE4"/>
<circle cx="42.5" cy="26.5" r="2.5" transform="rotate(90 42.5 26.5)" fill="#D2DDE4"/>
<circle cx="34.5" cy="26.5" r="2.5" transform="rotate(90 34.5 26.5)" fill="#D2DDE4"/>
<circle cx="26.5" cy="26.5" r="2.5" transform="rotate(90 26.5 26.5)" fill="#D2DDE4"/>
<circle cx="18.5" cy="26.5" r="2.5" transform="rotate(90 18.5 26.5)" fill="#D2DDE4"/>
<circle cx="10.5" cy="26.5" r="2.5" transform="rotate(90 10.5 26.5)" fill="#D2DDE4"/>
<circle cx="2.5" cy="26.5" r="2.5" transform="rotate(90 2.5 26.5)" fill="#D2DDE4"/>
</svg>
