<svg width="20" height="20" viewBox="0 0 20 20" fill="none" xmlns="http://www.w3.org/2000/svg">
<g clip-path="url(#clip0)">
<path d="M7.30387 12.2601L7.30387 12.5456L7.30387 14.4489L9.04852 14.4489L9.04852 12.4029C9.04852 12.0381 8.95336 11.7209 8.11275 11.7209C7.27215 11.7209 7.30387 12.2601 7.30387 12.2601Z" fill="white"/>
<path d="M10.3174 12.2601L10.3174 14.4489L12.5378 14.4489L12.5378 12.5297C12.5378 12.498 12.5378 12.4504 12.5378 12.387C12.5378 12.0698 12.411 11.4671 11.4593 11.4671C10.3332 11.4512 10.3174 12.2601 10.3174 12.2601Z" fill="white"/>
<path d="M0.00781185 5.02776L0.00781228 14.9881C0.0078124 17.7478 2.25999 20 5.01971 20L14.9959 20C17.7398 20 19.992 17.7478 19.992 14.9881L19.992 5.01189C19.992 2.25218 17.7398 -1.35217e-07 14.9801 -1.45857e-08L5.01971 4.20795e-07C2.25999 0.015861 0.00781172 2.26804 0.00781185 5.02776ZM6.35198 8.26328L6.35198 4.93259L7.14501 4.93259L7.14501 8.26328L6.35198 8.26328ZM11.5701 9.81761C14.0443 9.81761 14.1236 12.2601 14.1236 12.2601L14.1236 14.5123L14.1236 14.5757L14.1236 16.1935L5.87617 16.1935L5.87617 14.5916L5.87617 14.5282L5.87617 12.276C5.87617 11.0547 6.57403 10.0872 8.03319 10.0872C9.49235 10.0872 9.57165 11.2609 9.57165 11.2609C9.55579 9.70658 11.5701 9.81761 11.5701 9.81761ZM11.4273 3.83822L11.4273 7.85091C13.0134 7.85091 12.8865 6.48692 12.8865 6.48692C12.8865 5.20222 12.0617 5.2498 12.0617 5.2498L12.0617 3.8858C14.2822 3.8858 14.187 6.5345 14.187 6.5345C14.187 9.70658 11.0625 9.5004 11.0625 9.5004C11.0625 9.5004 7.92217 9.5004 7.92217 6.5345C7.90631 3.40999 11.4273 3.83822 11.4273 3.83822Z" fill="white"/>
<path d="M9.06445 6.50283C9.06445 7.69236 10.3174 7.86682 10.3174 7.86682L10.3174 5.32916C10.3174 5.32916 9.06445 5.3133 9.06445 6.50283Z" fill="white"/>
</g>
<defs>
<clipPath id="clip0">
<rect width="20" height="20" fill="white" transform="translate(0 20) rotate(-90)"/>
</clipPath>
</defs>
</svg>
