<svg width="25" height="25" viewBox="0 0 25 25" fill="none" xmlns="http://www.w3.org/2000/svg">
<path d="M9.67489 9.12959H9.31803H6.93896V11.3104H9.49646C9.95245 11.3104 10.349 11.1915 10.349 10.1407C10.349 9.08994 9.67489 9.12959 9.67489 9.12959Z" fill="#4B5F6C"/>
<path d="M9.6749 12.8966H6.93896V15.6722H9.33786C9.37751 15.6722 9.43699 15.6722 9.51629 15.6722C9.9128 15.6722 10.6662 15.5136 10.6662 14.324C10.686 12.9164 9.6749 12.8966 9.6749 12.8966Z" fill="#4B5F6C"/>
<path d="M18.7153 0.0100098H6.26487C2.81523 0.0100098 0 2.82524 0 6.27488V18.7451C0 22.175 2.81523 24.9902 6.26487 24.9902H18.7351C22.1848 24.9902 25 22.175 25 18.7253V6.27488C24.9802 2.82524 22.1649 0.0100098 18.7153 0.0100098ZM14.6709 7.94022H18.8343V8.9315H14.6709V7.94022ZM12.728 14.4628C12.728 17.5556 9.67486 17.6547 9.67486 17.6547H6.85964H6.78033H4.75813V7.34546H6.76051H6.83981H9.65504C11.1816 7.34546 12.391 8.21778 12.391 10.0417C12.391 11.8657 10.9239 11.9648 10.9239 11.9648C12.8668 11.945 12.728 14.4628 12.728 14.4628ZM20.2022 14.2844H15.1864C15.1864 16.2669 16.8914 16.1083 16.8914 16.1083C18.4972 16.1083 18.4377 15.0774 18.4377 15.0774H20.1427C20.1427 17.853 16.8319 17.734 16.8319 17.734C12.8668 17.734 13.1245 13.8284 13.1245 13.8284C13.1245 13.8284 13.1245 9.90295 16.8319 9.90295C20.7375 9.88313 20.2022 14.2844 20.2022 14.2844Z" fill="#4B5F6C"/>
<path d="M16.8715 11.3303C15.3846 11.3303 15.1665 12.8965 15.1665 12.8965H18.3386C18.3386 12.8965 18.3584 11.3303 16.8715 11.3303Z" fill="#4B5F6C"/>
</svg>
