<svg width="20" height="20" viewBox="0 0 20 20" fill="none" xmlns="http://www.w3.org/2000/svg">
<g clip-path="url(#clip0)">
<path d="M-6.54977e-07 5.01587L-2.18557e-07 15C-9.85241e-08 17.746 2.25397 20 5.01587 20L15 20C17.746 20 20 17.746 20 15L20 5.01587C20 2.25397 17.746 -1.46116e-06 14.9841 -1.34043e-06L5.01587 -9.04704e-07C2.25397 -7.83978e-07 -7.75704e-07 2.25397 -6.54977e-07 5.01587ZM10 7.31746L10 9.20635L16.1905 9.20635L16.1905 11.5873L10 11.5873L10 12.8571L7.46032 12.8571L7.46032 11.746L6.38095 11.746C5.36508 11.746 3.7619 11.2381 3.7619 9.09524L3.7619 7.14286L5.87302 7.14286L5.87302 8.52381C5.87302 8.74603 6.01587 9.04762 6.50794 9.04762L7.46032 9.04762L7.46032 7.09524L10 7.31746Z" fill="white"/>
</g>
<defs>
<clipPath id="clip0">
<rect width="20" height="20" fill="white" transform="translate(0 20) rotate(-90)"/>
</clipPath>
</defs>
</svg>
