<svg width="25" height="25" viewBox="0 0 25 25" fill="none" xmlns="http://www.w3.org/2000/svg">
<g clip-path="url(#clip0)">
<path d="M9.01677 20.101C8.84295 20.1334 8.76702 20.215 8.7888 20.345C8.81046 20.4752 8.90811 20.5187 9.0817 20.4752C9.25551 20.4319 9.33139 20.3558 9.30955 20.2473C9.28801 20.1281 9.19035 20.0792 9.01677 20.101Z" fill="#4B5F6C"/>
<path d="M8.08902 20.2312C7.91538 20.2312 7.82861 20.2905 7.82861 20.4101C7.82861 20.5512 7.92091 20.6107 8.10527 20.589C8.27892 20.589 8.3658 20.5293 8.3658 20.4101C8.3658 20.2693 8.2735 20.2093 8.08902 20.2312Z" fill="#4B5F6C"/>
<path d="M6.81998 20.182C6.77665 20.3015 6.84723 20.3826 7.03153 20.4262C7.19429 20.4911 7.29742 20.4586 7.34074 20.3285C7.37335 20.2093 7.30278 20.1228 7.12919 20.0681C6.96637 20.0249 6.86336 20.0623 6.81998 20.182Z" fill="#4B5F6C"/>
<path d="M23.6246 1.3752C22.7077 0.458457 21.6039 0 20.3124 0H4.68747C3.39636 0 2.29217 0.458457 1.3752 1.3752C0.458457 2.29211 0 3.3963 0 4.68746V20.3126C0 21.6038 0.458457 22.7079 1.3752 23.6246C2.29211 24.5416 3.39636 25 4.68747 25H8.33329C8.57182 25 8.75099 24.9918 8.87031 24.9758C8.98957 24.9594 9.10883 24.8889 9.22826 24.7639C9.34775 24.6393 9.40727 24.4575 9.40727 24.2188C9.40727 24.1865 9.40442 23.8172 9.39906 23.1119C9.39353 22.4064 9.39085 21.8477 9.39085 21.4353L9.01648 21.5005C8.77779 21.5438 8.47667 21.5629 8.11313 21.5574C7.74976 21.552 7.3726 21.5141 6.98204 21.4435C6.59125 21.3729 6.22788 21.2102 5.89148 20.9554C5.55525 20.7002 5.31655 20.3667 5.17546 19.9544L5.01264 19.5798C4.90416 19.3305 4.73336 19.0537 4.50003 18.7501C4.2667 18.4462 4.03074 18.24 3.79205 18.1315L3.67809 18.0501C3.60221 17.9959 3.53169 17.9305 3.46653 17.8546C3.40149 17.7785 3.35269 17.7025 3.32014 17.6267C3.28759 17.5506 3.31461 17.4882 3.40149 17.4392C3.48837 17.3905 3.64554 17.3663 3.87351 17.3663L4.19891 17.4151C4.416 17.4584 4.68439 17.5885 5.00466 17.8056C5.32471 18.0226 5.5878 18.3047 5.79399 18.6518C6.04369 19.0968 6.34452 19.4357 6.69734 19.669C7.04988 19.9026 7.40532 20.0192 7.76333 20.0192C8.12134 20.0192 8.43055 19.9921 8.69108 19.938C8.95132 19.8836 9.19548 19.8021 9.42346 19.6936C9.52111 18.9667 9.787 18.4075 10.2209 18.017C9.60246 17.9518 9.04641 17.8543 8.55255 17.7239C8.05897 17.5936 7.54892 17.3822 7.02274 17.0891C6.49633 16.7961 6.05965 16.4328 5.71242 15.9985C5.36524 15.5643 5.08031 14.9946 4.85804 14.2896C4.63565 13.5841 4.52443 12.7702 4.52443 11.848C4.52443 10.5352 4.95318 9.41734 5.81035 8.49513C5.40879 7.50775 5.4467 6.40112 5.9242 5.17488C6.23888 5.07717 6.70555 5.15048 7.32397 5.39465C7.94251 5.63898 8.39538 5.84791 8.68304 6.02128C8.9707 6.19469 9.20118 6.34132 9.37483 6.46081C10.3842 6.17867 11.4257 6.03764 12.4999 6.03764C13.574 6.03764 14.6157 6.17867 15.6251 6.46081L16.2436 6.07019C16.6669 5.80966 17.166 5.57097 17.7411 5.35406C18.3162 5.13708 18.7556 5.07734 19.0596 5.17505C19.5477 6.40129 19.5913 7.50792 19.1895 8.49524C20.0466 9.41757 20.4755 10.5353 20.4755 11.8482C20.4755 12.7705 20.3643 13.5872 20.1419 14.2977C19.9197 15.0084 19.6323 15.5783 19.2794 16.0069C18.9268 16.4355 18.4873 16.796 17.9611 17.0892C17.4348 17.3821 16.9248 17.5939 16.431 17.7238C15.9373 17.8542 15.3813 17.9521 14.7628 18.0173C15.3267 18.5054 15.6088 19.2755 15.6088 20.3282V24.2183C15.6088 24.4029 15.6357 24.5519 15.6899 24.6659C15.7445 24.7798 15.8312 24.8582 15.9505 24.902C16.0703 24.9453 16.1756 24.9724 16.2681 24.9831C16.3606 24.994 16.4932 24.9995 16.6669 24.9995H20.3127C21.6038 24.9995 22.7081 24.541 23.6246 23.6241C24.5415 22.7072 24.9999 21.603 24.9999 20.3119V4.68746C24.9998 3.3963 24.5414 2.29194 23.6246 1.3752Z" fill="#4B5F6C"/>
<path d="M4.94823 18.1967C4.87235 18.2507 4.88318 18.3376 4.98083 18.4569C5.08949 18.5654 5.1762 18.5817 5.24136 18.5057C5.31723 18.4516 5.3064 18.3648 5.20858 18.2452C5.10015 18.1477 5.01339 18.1314 4.94823 18.1967Z" fill="#4B5F6C"/>
<path d="M4.41114 17.7896C4.37865 17.8657 4.41661 17.9309 4.5251 17.9849C4.61181 18.0394 4.68255 18.0286 4.73666 17.9525C4.76915 17.8764 4.73118 17.8113 4.6227 17.7568C4.51421 17.7242 4.44369 17.7352 4.41114 17.7896Z" fill="#4B5F6C"/>
<path d="M5.45223 18.8315C5.35446 18.8856 5.35446 18.9835 5.45223 19.1244C5.54988 19.2656 5.64195 19.3035 5.72889 19.2383C5.8266 19.1622 5.8266 19.0592 5.72889 18.9289C5.64218 18.7882 5.54988 18.7552 5.45223 18.8315Z" fill="#4B5F6C"/>
<path d="M6.02241 19.5636C5.9247 19.6506 5.94625 19.7533 6.08752 19.8731C6.21755 20.003 6.32609 20.0194 6.41292 19.9215C6.4998 19.8349 6.47808 19.7319 6.34781 19.6125C6.21778 19.4825 6.10924 19.4661 6.02241 19.5636Z" fill="#4B5F6C"/>
</g>
<defs>
<clipPath id="clip0">
<rect width="25" height="25" fill="white"/>
</clipPath>
</defs>
</svg>
