<svg width="25" height="25" viewBox="0 0 25 25" fill="none" xmlns="http://www.w3.org/2000/svg">
<path d="M18.7153 0.0100098H6.26487C2.81523 0.0100098 0 2.82524 0 6.27488V18.7451C0 22.175 2.81523 24.9902 6.26487 24.9902H18.7351C22.1848 24.9902 25 22.175 25 18.7253V6.27488C24.9802 2.82524 22.1649 0.0100098 18.7153 0.0100098ZM8.32673 20.2321H4.75813V9.92278H8.32673V20.2321ZM6.5226 8.33673C5.5115 8.33673 4.69865 7.52389 4.69865 6.51279C4.69865 5.50168 5.5115 4.68884 6.5226 4.68884C7.5337 4.68884 8.34655 5.50168 8.34655 6.51279C8.32673 7.52389 7.51388 8.33673 6.5226 8.33673ZM20.2419 20.2321H20.222H17.2482V15.236C17.2482 14.0267 17.0896 12.4803 15.4441 12.4803C13.7589 12.4803 13.4814 13.7888 13.4814 15.1567V20.2321H10.5075V9.92278H13.2831V11.3106H13.3624C13.7986 10.5175 14.8097 9.90295 16.3957 9.90295C19.6669 9.90295 20.2419 11.7864 20.2419 14.5818V20.2321Z" fill="#4B5F6C"/>
</svg>
