<svg width="20" height="20" viewBox="0 0 20 20" fill="none" xmlns="http://www.w3.org/2000/svg">
<g clip-path="url(#clip0)">
<path d="M0.00781185 5.02776L0.00781228 14.9881C0.0078124 17.7478 2.25999 20 5.01971 20L14.9959 20C17.7398 20 19.992 17.7478 19.992 14.9881L19.992 5.01189C19.992 2.25218 17.7398 -1.35217e-07 14.9801 -1.45857e-08L5.01971 4.20795e-07C2.25999 0.015861 0.00781172 2.26804 0.00781185 5.02776ZM16.1855 13.3386L16.1855 16.1935L7.93803 16.1935L7.93803 13.3386L16.1855 13.3386ZM6.66919 14.7819C6.66919 15.5908 6.01891 16.2411 5.21003 16.2411C4.40115 16.2411 3.75087 15.5908 3.75087 14.7819C3.75087 13.973 4.40115 13.3228 5.21003 13.3228C6.01891 13.3386 6.66919 13.9889 6.66919 14.7819ZM16.1854 3.8065L16.1854 3.82236L16.1854 6.20143L12.1886 6.20143C11.2211 6.20143 9.98402 6.32831 9.98402 7.64473C9.98402 8.99286 11.0308 9.21491 12.1252 9.21491L16.1855 9.21491L16.1855 11.594L7.93803 11.594L7.93803 9.37351L9.04826 9.37351L9.04826 9.31007C8.41384 8.96114 7.92217 8.15226 7.92217 6.88343C7.92217 4.26646 9.42891 3.8065 11.6652 3.8065L16.1854 3.8065Z" fill="white"/>
</g>
<defs>
<clipPath id="clip0">
<rect width="20" height="20" fill="white" transform="translate(0 20) rotate(-90)"/>
</clipPath>
</defs>
</svg>
