<svg width="24" height="24" viewBox="0 0 24 24" fill="none" xmlns="http://www.w3.org/2000/svg">
<g clip-path="url(#clip0)">
<path d="M12.5494 11.9973L23.8864 0.660317C24.0375 0.509185 24.0375 0.2642 23.8864 0.113068C23.7353 -0.038015 23.4903 -0.038015 23.3392 0.113068L12.0022 11.4501L0.665153 0.113068C0.511408 -0.0354026 0.266424 -0.0311454 0.117904 0.122599C-0.0269385 0.27257 -0.0269385 0.510346 0.117904 0.660317L11.4549 11.9973L0.117904 23.3344C-0.03584 23.4829 -0.0400972 23.7279 0.108422 23.8816C0.256942 24.0353 0.501926 24.0396 0.65567 23.8911C0.658912 23.888 0.662056 23.8848 0.665153 23.8816L12.0022 12.5446L23.3392 23.8816C23.4929 24.0301 23.7379 24.0259 23.8864 23.8721C24.0313 23.7221 24.0313 23.4843 23.8864 23.3344L12.5494 11.9973Z" fill="#4B5F6C"/>
</g>
<defs>
<clipPath id="clip0">
<rect width="24" height="24" fill="white"/>
</clipPath>
</defs>
</svg>
