<svg width="50" height="50" viewBox="0 0 50 50" fill="none" xmlns="http://www.w3.org/2000/svg">
<g clip-path="url(#clip0)">
<path d="M36.6886 20.9275C35.7173 15.3554 30.8458 11.1057 25 11.1057C23.4838 11.1057 22.0061 11.3884 20.6078 11.9458C20.1068 12.1456 19.8626 12.7136 20.0624 13.2147C20.2622 13.7157 20.8304 13.96 21.3313 13.7601C22.4983 13.2948 23.7327 13.0588 25 13.0588C30.4582 13.0588 34.9001 17.4936 34.9121 22.9491C34.8294 23.1309 34.1653 23.7177 32.0947 24.2364C30.1615 24.7206 27.6419 24.9873 25.0001 24.9873C22.3583 24.9873 19.8386 24.7206 17.9055 24.2364C15.8349 23.7177 15.1708 23.131 15.0881 22.9491C15.0907 21.6894 15.3266 20.4627 15.7892 19.3027C15.9889 18.8017 15.7446 18.2336 15.2437 18.0338C14.7428 17.834 14.1747 18.0783 13.9749 18.5792C13.6714 19.3406 13.45 20.1256 13.3107 20.9276C9.03359 21.5748 0 23.4448 0 27.6837C0 29.96 2.68135 31.9001 7.754 33.2944C8.62363 33.5334 9.54658 33.7521 10.5153 33.9499L9.95801 36.0297C9.81836 36.5507 10.1275 37.0862 10.6485 37.2258C10.7332 37.2485 10.8183 37.2593 10.902 37.2593C11.3331 37.2593 11.7277 36.9715 11.8446 36.5353L12.4422 34.3053C15.9273 34.8843 19.8864 35.2127 24.0234 35.2576V37.9178C24.0234 38.4572 24.4606 38.8944 25 38.8944C25.5394 38.8944 25.9766 38.4572 25.9766 37.9178V35.2576C30.1136 35.2128 34.0727 34.8843 37.5578 34.3053L38.1554 36.5353C38.2723 36.9716 38.6668 37.2593 39.098 37.2593C39.1816 37.2593 39.2668 37.2485 39.3515 37.2258C39.8724 37.0863 40.1815 36.5507 40.042 36.0297L39.4847 33.9499C40.4534 33.7521 41.3765 33.5334 42.246 33.2944C47.3187 31.9001 50 29.96 50 27.6837C50 23.4442 40.964 21.5743 36.6886 20.9275V20.9275ZM41.7283 31.4111C37.2728 32.6357 31.3319 33.3101 25 33.3101C18.6681 33.3101 12.7272 32.6357 8.27168 31.4111C3.60791 30.1292 1.95312 28.602 1.95312 27.6837C1.95312 26.4612 4.95 24.2271 13.1353 22.9307C13.1353 22.9442 13.1348 22.9576 13.1348 22.9709C13.1348 26.1043 20.5931 26.9403 25 26.9403C29.4069 26.9403 36.8652 26.1042 36.8652 22.9709C36.8652 22.9575 36.8647 22.9442 36.8647 22.9307C45.0501 24.2271 48.0469 26.4613 48.0469 27.6837C48.0469 28.602 46.3921 30.1292 41.7283 31.4111Z" fill="white"/>
<path d="M25.0006 29.1487H25C24.4606 29.1487 24.0237 29.5859 24.0237 30.1252C24.0237 30.6646 24.4613 31.1018 25.0006 31.1018C25.54 31.1018 25.9772 30.6646 25.9772 30.1252C25.9772 29.5859 25.54 29.1487 25.0006 29.1487Z" fill="white"/>
<path d="M17.9372 28.6648H17.9365C17.3971 28.6648 16.9602 29.102 16.9602 29.6414C16.9602 30.1807 17.3978 30.6179 17.9372 30.6179C18.4765 30.6179 18.9137 30.1807 18.9137 29.6414C18.9137 29.102 18.4765 28.6648 17.9372 28.6648V28.6648Z" fill="white"/>
<path d="M11.0775 26.8582H11.0769C10.5375 26.8582 10.1006 27.2954 10.1006 27.8347C10.1006 28.3741 10.5382 28.8113 11.0775 28.8113C11.6169 28.8113 12.0541 28.3741 12.0541 27.8347C12.0541 27.2954 11.6169 26.8582 11.0775 26.8582Z" fill="white"/>
<path d="M32.0629 28.6648C31.5235 28.6648 31.0863 29.102 31.0863 29.6414C31.0863 30.1807 31.5235 30.6179 32.0629 30.6179H32.0635C32.6029 30.6179 33.0398 30.1807 33.0398 29.6414C33.0398 29.102 32.6022 28.6648 32.0629 28.6648Z" fill="white"/>
<path d="M38.9225 26.8582C38.3831 26.8582 37.9459 27.2954 37.9459 27.8347C37.9459 28.3741 38.3831 28.8113 38.9225 28.8113H38.9232C39.4625 28.8113 39.8994 28.3741 39.8994 27.8347C39.8994 27.2954 39.4618 26.8582 38.9225 26.8582Z" fill="white"/>
<path d="M17.3005 16.248C17.8398 16.248 18.277 15.8108 18.277 15.2715C18.277 14.7321 17.8398 14.2949 17.3005 14.2949H17.2998C16.7604 14.2949 16.3236 14.7321 16.3236 15.2715C16.3236 15.8108 16.7611 16.248 17.3005 16.248V16.248Z" fill="white"/>
</g>
<defs>
<clipPath id="clip0">
<rect width="50" height="50" fill="white"/>
</clipPath>
</defs>
</svg>
