<svg width="25" height="25" viewBox="0 0 25 25" fill="none" xmlns="http://www.w3.org/2000/svg">
<g clip-path="url(#clip0)">
<path d="M12.6354 8.8626H3.26118C3.05894 8.8626 2.89502 9.02656 2.89502 9.22876C2.89502 9.43101 3.05894 9.59492 3.26118 9.59492H12.6354C12.8377 9.59492 13.0016 9.43096 13.0016 9.22876C13.0016 9.02656 12.8377 8.8626 12.6354 8.8626Z" fill="#547489"/>
<path d="M12.6354 11.4356H3.26118C3.05894 11.4356 2.89502 11.5996 2.89502 11.8018C2.89502 12.004 3.05894 12.168 3.26118 12.168H12.6354C12.8377 12.168 13.0016 12.004 13.0016 11.8018C13.0016 11.5996 12.8377 11.4356 12.6354 11.4356Z" fill="#547489"/>
<path d="M12.6354 14.0086H3.26118C3.05894 14.0086 2.89502 14.1726 2.89502 14.3748C2.89502 14.577 3.05894 14.741 3.26118 14.741H12.6354C12.8377 14.741 13.0016 14.577 13.0016 14.3748C13.0016 14.1726 12.8377 14.0086 12.6354 14.0086Z" fill="#547489"/>
<path d="M13.0016 16.9479C13.0016 16.7457 12.8377 16.5817 12.6354 16.5817H3.26118C3.05894 16.5817 2.89502 16.7457 2.89502 16.9479C2.89502 17.1501 3.05894 17.3141 3.26118 17.3141H12.6354C12.8377 17.3141 13.0016 17.1501 13.0016 16.9479Z" fill="#547489"/>
<path d="M3.26118 20.3526C3.05894 20.3526 2.89502 20.5166 2.89502 20.7188C2.89502 20.9209 3.05894 21.0849 3.26118 21.0849H7.96031C8.16256 21.0849 8.32647 20.9209 8.32647 20.7188C8.32647 20.5166 8.16256 20.3526 7.96031 20.3526H3.26118Z" fill="#547489"/>
<path d="M16.8555 4.53384V3.34565C16.8555 2.89302 16.4873 2.52476 16.0346 2.52476H8.51665C8.06401 2.52476 7.6958 2.89302 7.6958 3.34565V4.53384C7.6958 4.98647 8.06401 5.35469 8.51665 5.35469H9.15151C9.35376 5.35469 9.51768 5.19072 9.51768 4.98852C9.51768 4.78628 9.35376 4.62236 9.15151 4.62236H8.51665C8.46787 4.62236 8.42817 4.58267 8.42817 4.53389V3.34565C8.42817 3.29687 8.46787 3.25713 8.51665 3.25713H16.0346C16.0834 3.25713 16.1231 3.29683 16.1231 3.34565V4.53384C16.1231 4.58262 16.0834 4.62231 16.0346 4.62231H10.8634C10.6612 4.62231 10.4973 4.78628 10.4973 4.98848C10.4973 5.19072 10.6612 5.35464 10.8634 5.35464H16.0346C16.4873 5.35474 16.8555 4.98647 16.8555 4.53384Z" fill="#547489"/>
<path d="M19.5935 22.3289C19.3912 22.3289 19.2273 22.4929 19.2273 22.6951V23.1882C19.2273 23.7833 18.7431 24.2676 18.1478 24.2676H1.94849C1.35332 24.2676 0.869043 23.7834 0.869043 23.1882V5.5873C0.869043 5.50806 0.87832 5.43032 0.894873 5.35469H4.229C4.9251 5.35469 5.49141 4.78838 5.49141 4.09229V0.758203C5.56704 0.74165 5.64473 0.732373 5.72398 0.732373H18.1478C18.743 0.732373 19.2272 1.2166 19.2272 1.81182V6.68691C19.2272 6.88916 19.3912 7.05308 19.5934 7.05308C19.7957 7.05308 19.9596 6.88911 19.9596 6.68691V1.81177C19.9596 0.812793 19.1468 0 18.1478 0H5.72402C5.24009 0 4.78506 0.188477 4.44287 0.530664L0.667334 4.3062C0.325147 4.64839 0.136719 5.10337 0.136719 5.58735V23.1882C0.136719 24.1873 0.949463 25 1.94849 25H18.1478C19.1468 25 19.9596 24.1872 19.9596 23.1882V22.6951C19.9596 22.4929 19.7957 22.3289 19.5935 22.3289ZM4.75908 1.2502V4.09229C4.75908 4.38457 4.52129 4.62236 4.229 4.62236H1.38691L4.75908 1.2502Z" fill="#547489"/>
<path d="M24.6089 13.0859C24.866 12.7086 24.9325 12.2432 24.7914 11.809C24.6504 11.3749 24.323 11.0374 23.8933 10.8833C23.6082 10.7811 23.418 10.5194 23.409 10.2166C23.3951 9.76035 23.1754 9.34473 22.806 9.07637C22.4367 8.80806 21.9734 8.72754 21.5353 8.85537C21.2444 8.94023 20.9369 8.84024 20.7516 8.60073C20.4722 8.23965 20.0502 8.03257 19.5936 8.03257C19.1371 8.03257 18.715 8.23965 18.4356 8.60073C18.2503 8.84028 17.9426 8.94014 17.6519 8.85537C17.2138 8.72744 16.7506 8.80806 16.3812 9.07637C16.0118 9.34473 15.7922 9.7603 15.7783 10.2166C15.7692 10.5193 15.579 10.781 15.2939 10.8833C14.8642 11.0374 14.5368 11.3749 14.3958 11.809C14.2548 12.2432 14.3213 12.7086 14.5783 13.0858C14.7488 13.3362 14.7488 13.6596 14.5783 13.9099C14.3213 14.2872 14.2548 14.7526 14.3958 15.1868C14.5368 15.6209 14.8642 15.9583 15.2939 16.1125C15.579 16.2148 15.7692 16.4765 15.7783 16.7792C15.791 17.1989 15.9834 17.5933 16.3061 17.8611C16.5191 18.0379 16.7749 18.1485 17.0426 18.1854V21.5193C17.0426 21.8006 17.1952 22.0606 17.4407 22.1978C17.686 22.3348 17.9875 22.3287 18.2272 22.1811L19.5702 21.3544C19.5921 21.3409 19.6051 21.347 19.6172 21.3544L20.9601 22.1811C21.1997 22.3286 21.5011 22.3349 21.7466 22.1977C21.9923 22.0605 22.1448 21.8005 22.1448 21.5193V18.1853C22.4124 18.1484 22.6682 18.0378 22.8812 17.8611C23.204 17.5933 23.3964 17.199 23.4091 16.7791C23.4182 16.4764 23.6084 16.2147 23.8934 16.1124C24.3232 15.9583 24.6505 15.6209 24.7916 15.1867C24.9326 14.7525 24.8661 14.2872 24.6091 13.9099C24.4384 13.6597 24.4384 13.3362 24.6089 13.0859ZM21.344 21.5575L20.001 20.7308C19.7513 20.5771 19.4361 20.5768 19.1862 20.7308L17.8432 21.5575C17.8127 21.5761 17.7749 21.5546 17.7749 21.5193V18.1159C18.0267 18.0868 18.2763 18.1892 18.4356 18.3951C18.7151 18.7561 19.1371 18.9632 19.5937 18.9632C20.0502 18.9632 20.4722 18.7561 20.7516 18.3951C20.911 18.1892 21.1606 18.0868 21.4123 18.1159V21.5193C21.4123 21.5549 21.3741 21.5761 21.344 21.5575ZM24.0037 14.3224C24.1322 14.5109 24.1654 14.7435 24.0949 14.9605C24.0244 15.1775 23.8608 15.3461 23.646 15.4232C23.0756 15.6278 22.6952 16.1514 22.6769 16.7571C22.6704 16.97 22.5768 17.162 22.4134 17.2976C22.2297 17.4501 21.9808 17.5076 21.7405 17.4375C21.1588 17.2678 20.5432 17.4678 20.1723 17.947C20.0327 18.1274 19.8217 18.2309 19.5936 18.2309C19.3654 18.2309 19.1545 18.1274 19.0148 17.947C18.7316 17.5809 18.3058 17.3778 17.8613 17.3778C17.7237 17.3778 17.5843 17.3973 17.4468 17.4374C17.2041 17.5081 16.956 17.4489 16.7737 17.2976C16.6103 17.1619 16.5167 16.97 16.5103 16.7571C16.4919 16.1514 16.1115 15.6278 15.5411 15.4231C15.3263 15.3461 15.1628 15.1775 15.0922 14.9605C15.0217 14.7435 15.0549 14.5109 15.1834 14.3223C15.5246 13.8215 15.5246 13.1744 15.1834 12.6735C15.0549 12.485 15.0217 12.2523 15.0922 12.0353C15.1627 11.8183 15.3263 11.6497 15.5411 11.5727C16.1115 11.368 16.4919 10.8444 16.5103 10.2387C16.5172 10.0106 16.6269 9.80293 16.8115 9.66885C16.9961 9.53472 17.2275 9.49448 17.4467 9.55835C18.0282 9.72812 18.644 9.52808 19.0148 9.04888C19.1544 8.86841 19.3654 8.76489 19.5936 8.76489C19.8217 8.76489 20.0327 8.86836 20.1723 9.04883C20.5432 9.52808 21.1586 9.72808 21.7404 9.55835C21.9595 9.49438 22.1909 9.53467 22.3756 9.6688C22.5602 9.80288 22.67 10.0106 22.6769 10.2387C22.6952 10.8444 23.0756 11.368 23.646 11.5726C23.8608 11.6496 24.0244 11.8183 24.0949 12.0353C24.1654 12.2522 24.1322 12.4849 24.0037 12.6734C23.6625 13.1743 23.6625 13.8215 24.0037 14.3224Z" fill="#547489"/>
<path d="M19.5935 10.4289C17.9012 10.4289 16.5244 11.8056 16.5244 13.4979C16.5244 15.1902 17.9012 16.5669 19.5935 16.5669C21.2857 16.5669 22.6625 15.1902 22.6625 13.4979C22.6625 11.8056 21.2857 10.4289 19.5935 10.4289ZM19.5935 15.8346C18.305 15.8346 17.2567 14.7864 17.2567 13.4979C17.2567 12.2095 18.305 11.1612 19.5935 11.1612C20.8819 11.1612 21.9301 12.2095 21.9301 13.4979C21.9301 14.7864 20.8819 15.8346 19.5935 15.8346Z" fill="#547489"/>
</g>
<defs>
<clipPath id="clip0">
<rect width="25" height="25" fill="white"/>
</clipPath>
</defs>
</svg>
