<svg width="60" height="60" viewBox="0 0 60 60" fill="none" xmlns="http://www.w3.org/2000/svg">
<path d="M60 50C60 55.5 55.5 60 50 60H10C4.5 60 0 55.5 0 50V10C0 4.5 4.5 0 10 0H50C55.5 0 60 4.5 60 10V50Z" fill="#563D7C"/>
<path d="M16.304 13.0392H33.3137C36.451 13.0392 38.9706 13.7549 40.8628 15.1961C42.7549 16.6373 43.7059 18.804 43.7059 21.7157C43.7059 23.4804 43.2745 24.9902 42.4118 26.2451C41.549 27.5 40.3137 28.4804 38.7059 29.1667V29.2647C40.8628 29.7255 42.5 30.7451 43.6079 32.3236C44.7157 33.9118 45.2745 35.8922 45.2745 38.2843C45.2745 39.6569 45.0294 40.9412 44.5392 42.1275C44.049 43.3236 43.2843 44.353 42.2353 45.2157C41.1863 46.0785 39.853 46.7647 38.2157 47.2745C36.5785 47.7843 34.6373 48.0392 32.3824 48.0392H16.304V13.0392ZM22.4314 27.6961H32.4314C33.902 27.6961 35.1275 27.2843 36.1079 26.4412C37.0883 25.5981 37.5785 24.402 37.5785 22.8334C37.5785 21.0687 37.1373 19.8236 36.2549 19.1079C35.3726 18.3922 34.0981 18.0294 32.4314 18.0294H22.4314V27.6961ZM22.4314 43.0392H33.2647C35.1275 43.0392 36.5785 42.5589 37.5981 41.5883C38.6275 40.6275 39.1471 39.2549 39.1471 37.4902C39.1471 35.7549 38.6373 34.4314 37.5981 33.4902C36.5588 32.549 35.1275 32.0981 33.2647 32.0981H22.4314V43.0392Z" fill="white"/>
</svg>
