<svg width="142" height="60" viewBox="0 0 142 60" fill="none" xmlns="http://www.w3.org/2000/svg">
<path d="M84.8585 20.6742C81.7539 20.6742 79.4417 22.201 79.4417 25.8754C79.4417 28.6438 80.9655 30.5661 84.6912 30.5661C87.8489 30.5661 89.9938 28.7023 89.9938 25.7611C89.9938 22.4276 88.0746 20.6742 84.8585 20.6742ZM78.6513 46.6197C77.9167 47.5224 77.1846 48.4822 77.1846 49.6141C77.1846 51.8735 80.061 52.5534 84.0123 52.5534C87.2854 52.5534 91.7439 52.3235 91.7439 49.2758C91.7439 47.4639 89.5989 47.3522 86.8886 47.1821L78.6513 46.6197ZM95.3548 20.845C96.3689 22.1451 97.4427 23.9544 97.4427 26.554C97.4427 32.8274 92.533 36.5005 85.4245 36.5005C83.6168 36.5005 81.9802 36.2751 80.9655 35.9926L79.1026 38.9877L84.6322 39.3261C94.3958 39.9495 100.15 40.2327 100.15 47.7464C100.15 54.2477 94.4516 57.9195 84.6322 57.9195C74.4186 57.9195 70.5249 55.3199 70.5249 50.8552C70.5249 48.3114 71.6538 46.958 73.6288 45.0897C71.7659 44.3013 71.1461 42.8888 71.1461 41.362C71.1461 40.1177 71.7659 38.9877 72.7833 37.913C73.7987 36.8408 74.9269 35.7653 76.2814 34.5224C73.5166 33.1657 71.4281 30.2265 71.4281 26.0436C71.4281 19.5449 75.7173 15.0814 84.3495 15.0814C86.7765 15.0814 88.2444 15.3048 89.5425 15.6464H100.547V20.4488L95.3548 20.845Z" fill="#2F2707"/>
<path d="M110.475 10.5745C107.257 10.5745 105.396 8.70805 105.396 5.48499C105.396 2.26649 107.257 0.513062 110.475 0.513062C113.748 0.513062 115.61 2.26649 115.61 5.48499C115.61 8.70805 113.748 10.5745 110.475 10.5745ZM103.194 44.5396V40.0768L106.073 39.6826C106.863 39.5683 106.975 39.3995 106.975 38.55V21.9334C106.975 21.3132 106.807 20.9158 106.241 20.7476L103.194 19.6728L103.814 15.0964H115.497V38.55C115.497 39.456 115.551 39.5683 116.4 39.6826L119.278 40.0768V44.5396H103.194Z" fill="#2F2707"/>
<path d="M141.593 42.3484C139.166 43.5343 135.611 44.6084 132.393 44.6084C125.678 44.6084 123.14 41.8984 123.14 35.5088V20.7014C123.14 20.3631 123.14 20.1365 122.687 20.1365H118.737V15.1061C123.705 14.5398 125.678 12.0525 126.299 5.89215H131.661V13.9202C131.661 14.3144 131.661 14.4852 132.113 14.4852H140.068V20.1365H131.661V33.6437C131.661 36.9784 132.452 38.2773 135.497 38.2773C137.079 38.2773 138.714 37.8824 140.068 37.3739L141.593 42.3484Z" fill="#2F2707"/>
<path d="M57.9808 27.5157L32.179 1.67537C30.6941 0.186905 28.284 0.186905 26.7972 1.67537L21.4395 7.0415L28.236 13.8487C29.8155 13.3142 31.6265 13.6727 32.8857 14.9339C34.1508 16.2028 34.5061 18.0322 33.9595 19.6194L40.5096 26.1798C42.0943 25.633 43.9228 25.9869 45.1885 27.2565C46.9573 29.0275 46.9573 31.8979 45.1885 33.6702C43.419 35.4424 40.5531 35.4424 38.7829 33.6702C37.4524 32.3363 37.1237 30.3789 37.7974 28.7372L31.6888 22.6191L31.6881 38.7194C32.1193 38.9337 32.5265 39.2188 32.8857 39.5773C34.6546 41.3482 34.6546 44.2187 32.8857 45.9922C31.1162 47.7638 28.249 47.7638 26.4821 45.9922C24.7133 44.2187 24.7133 41.3482 26.4821 39.5773C26.9191 39.1402 27.4249 38.8097 27.9644 38.5876V22.3372C27.4249 22.1164 26.9198 21.7878 26.4821 21.3475C25.1419 20.0071 24.8196 18.0374 25.5063 16.3892L18.807 9.67813L1.11533 27.3962C-0.371452 28.8859 -0.371452 31.2998 1.11533 32.7883L26.9172 58.6292C28.4027 60.1177 30.8121 60.1177 32.2996 58.6292L57.9808 32.9084C59.467 31.4193 59.467 29.0041 57.9808 27.5157Z" fill="#DE4C36"/>
</svg>
